<?xml version="1.0" encoding="utf-8"?>
<!-- Generator: Adobe Illustrator 23.0.6, SVG Export Plug-In . SVG Version: 6.00 Build 0)  -->
<svg version="1.1" id="Layer_1" xmlns="http://www.w3.org/2000/svg" xmlns:xlink="http://www.w3.org/1999/xlink" x="0px" y="0px"
	 width="256px" height="256px" viewBox="0 0 256 256" enable-background="new 0 0 256 256" xml:space="preserve">
<g>
	<polygon fill="#262626" points="36.57,52.25 36.57,235.1 0,256 0,73.14 	"/>
	<polygon fill="#595959" points="128,73.14 128,109.71 0,182.86 0,146.29 	"/>
	<polygon fill="#595959" points="128,0 128,36.57 0,109.71 0,73.14 	"/>
	<polygon fill="#F2BB13" points="128,146.29 128,182.86 73.14,214.2 73.14,177.63 	"/>
	<polygon fill="#D9560B" points="256,73.14 256,256 219.43,235.1 219.43,52.25 	"/>
	<polygon fill="#F28907" points="256,146.29 256,182.86 128,109.71 128,73.14 	"/>
	<polygon fill="#F28907" points="256,219.43 256,256 128,182.86 128,146.29 	"/>
	<polygon fill="#A6A6A6" points="182.86,31.34 182.86,67.91 128,36.57 128,0 	"/>
</g>
</svg>
