<?xml version="1.0" encoding="utf-8"?>
<!-- Generator: Adobe Illustrator 23.0.6, SVG Export Plug-In . SVG Version: 6.00 Build 0)  -->
<svg version="1.1" id="Layer_1" xmlns="http://www.w3.org/2000/svg" xmlns:xlink="http://www.w3.org/1999/xlink" x="0px" y="0px"
	 width="300px" height="188px" viewBox="0 0 300 188" enable-background="new 0 0 300 188" xml:space="preserve">
<g>
	<polygon fill="#262626" points="46.21,54.89 46.21,149.3 27.41,160.08 27.41,65.68 	"/>
	<polygon fill="#595959" points="93.2,84.56 27.41,122.32 27.41,103.44 93.2,65.68 	"/>
	<polygon fill="#595959" points="93.2,46.8 27.41,84.56 27.41,65.68 93.2,27.92 	"/>
	<polygon fill="#F2BB13" points="93.2,103.44 93.2,122.32 65.01,138.5 65.01,119.62 	"/>
	<polygon fill="#D9560B" points="140.2,54.89 140.2,149.3 158.99,160.08 158.99,65.68 	"/>
	<polygon fill="#F28907" points="93.2,84.56 158.99,122.32 158.99,103.44 93.2,65.68 	"/>
	<polygon fill="#F28907" points="93.2,122.32 158.99,160.08 158.99,141.2 93.2,103.44 	"/>
	<polygon fill="#A6A6A6" points="93.2,27.92 93.2,46.8 121.4,62.98 121.4,44.1 	"/>
</g>
<g>
	<path fill="#F28907" d="M198.7,90.81H187.6v7.72h10.2v5.74h-10.2v12.21h-7.08V85.04h18.18V90.81z"/>
	<path fill="#F28907" d="M220.54,116.48h-6.56v-3.22h-0.09c-1.51,2.51-3.73,3.77-6.69,3.77c-2.18,0-3.89-0.62-5.14-1.85
		c-1.25-1.24-1.87-2.88-1.87-4.94c0-4.36,2.58-6.87,7.74-7.54l6.1-0.81c0-2.46-1.33-3.68-3.99-3.68c-2.67,0-5.22,0.8-7.63,2.39
		v-5.22c0.96-0.5,2.28-0.94,3.96-1.32c1.67-0.38,3.2-0.57,4.57-0.57c6.4,0,9.6,3.19,9.6,9.58V116.48z M214.02,107.36v-1.51
		l-4.08,0.53c-2.25,0.29-3.38,1.31-3.38,3.05c0,0.79,0.27,1.44,0.82,1.94c0.55,0.5,1.29,0.76,2.23,0.76c1.3,0,2.36-0.45,3.18-1.35
		C213.61,109.87,214.02,108.73,214.02,107.36z"/>
	<path fill="#F28907" d="M240.66,100.28c-0.83-0.45-1.81-0.68-2.92-0.68c-1.51,0-2.68,0.55-3.53,1.66c-0.85,1.1-1.27,2.61-1.27,4.51
		v10.72h-6.93V94.03h6.93v4.17h0.09c1.1-3.04,3.07-4.56,5.92-4.56c0.73,0,1.3,0.09,1.71,0.26V100.28z"/>
	<path fill="#F28907" d="M247.57,90.48c-1.17,0-2.13-0.35-2.87-1.04c-0.75-0.69-1.12-1.55-1.12-2.55c0-1.04,0.37-1.89,1.12-2.54
		s1.7-0.99,2.87-0.99c1.18,0,2.14,0.33,2.88,0.99c0.74,0.66,1.11,1.51,1.11,2.54c0,1.05-0.37,1.91-1.11,2.59
		C249.71,90.14,248.75,90.48,247.57,90.48z M250.99,116.48h-6.93V94.03h6.93V116.48z"/>
	<path fill="#F28907" d="M255.35,115.89v-5.61c1.14,0.69,2.28,1.2,3.41,1.53c1.13,0.34,2.2,0.5,3.21,0.5c1.23,0,2.2-0.17,2.91-0.5
		c0.71-0.34,1.06-0.85,1.06-1.53c0-0.44-0.16-0.8-0.48-1.1c-0.32-0.29-0.73-0.55-1.24-0.77c-0.5-0.22-1.06-0.42-1.66-0.59
		c-0.6-0.18-1.18-0.37-1.73-0.59c-0.89-0.34-1.68-0.7-2.36-1.09c-0.68-0.39-1.25-0.84-1.71-1.35c-0.46-0.51-0.81-1.1-1.05-1.78
		c-0.24-0.67-0.36-1.47-0.36-2.39c0-1.26,0.27-2.34,0.82-3.25c0.55-0.91,1.28-1.65,2.19-2.23c0.91-0.58,1.96-1,3.14-1.27
		c1.18-0.27,2.4-0.41,3.67-0.41c0.99,0,2,0.08,3.03,0.23c1.02,0.15,2.03,0.38,3.03,0.67v5.35c-0.88-0.51-1.82-0.9-2.82-1.15
		c-1-0.26-1.98-0.38-2.95-0.38c-0.45,0-0.88,0.04-1.28,0.12c-0.4,0.08-0.76,0.2-1.06,0.35c-0.31,0.15-0.55,0.35-0.72,0.59
		c-0.18,0.24-0.26,0.52-0.26,0.82c0,0.41,0.13,0.76,0.39,1.05c0.26,0.29,0.61,0.54,1.03,0.76c0.42,0.21,0.9,0.4,1.41,0.57
		c0.52,0.17,1.03,0.34,1.55,0.52c0.92,0.32,1.75,0.67,2.5,1.05c0.75,0.38,1.38,0.83,1.92,1.34c0.53,0.51,0.94,1.11,1.23,1.8
		c0.29,0.69,0.43,1.51,0.43,2.46c0,1.33-0.29,2.47-0.87,3.41c-0.58,0.94-1.34,1.71-2.3,2.3c-0.96,0.59-2.06,1.02-3.31,1.29
		c-1.25,0.27-2.55,0.41-3.89,0.41C259.75,117.03,257.46,116.65,255.35,115.89z"/>
</g>
<g>
	<path fill="#595959" d="M180.44,122.79v4.49h4.07v0.69h-4.07v5.13h-0.76v-11h5.14v0.7H180.44z"/>
	<path fill="#595959" d="M190.98,129.2c0,1.08,0.25,1.92,0.75,2.53c0.5,0.61,1.18,0.91,2.05,0.91c0.88,0,1.74-0.32,2.58-0.97v0.75
		c-0.81,0.58-1.72,0.87-2.72,0.87c-1.01,0-1.83-0.36-2.46-1.09c-0.62-0.73-0.94-1.75-0.94-3.08c0-1.15,0.33-2.11,0.98-2.9
		c0.65-0.79,1.5-1.18,2.54-1.18c0.98,0,1.73,0.34,2.25,1.03c0.52,0.69,0.78,1.62,0.78,2.81v0.31H190.98z M196.06,128.55
		c-0.03-0.91-0.25-1.61-0.65-2.11c-0.4-0.5-0.96-0.75-1.67-0.75c-0.74,0-1.35,0.25-1.83,0.74c-0.48,0.49-0.78,1.2-0.89,2.12H196.06z
		"/>
	<path fill="#595959" d="M203.46,131.7h-0.03v1.4h-0.71v-11.63h0.71v5.39h0.03c0.28-0.58,0.68-1.02,1.21-1.34
		c0.52-0.31,1.1-0.47,1.73-0.47c1,0,1.78,0.34,2.34,1.03c0.56,0.69,0.84,1.62,0.84,2.8c0,1.32-0.33,2.38-0.97,3.19
		c-0.65,0.81-1.49,1.22-2.53,1.22C204.89,133.29,204.02,132.76,203.46,131.7z M203.43,128.78v0.99c0,0.79,0.25,1.46,0.74,2.03
		c0.5,0.57,1.15,0.85,1.96,0.85c0.8,0,1.46-0.34,1.96-1.03c0.5-0.69,0.75-1.59,0.75-2.71c0-0.98-0.23-1.76-0.69-2.34
		c-0.46-0.58-1.07-0.87-1.84-0.87c-0.92,0-1.62,0.31-2.13,0.92C203.68,127.23,203.43,127.95,203.43,128.78z"/>
	<path fill="#595959" d="M219.21,125.97c-0.24-0.17-0.51-0.25-0.83-0.25c-0.62,0-1.14,0.32-1.56,0.96
		c-0.42,0.64-0.63,1.55-0.63,2.72v3.69h-0.69v-7.86h0.69v1.74h0.03c0.18-0.6,0.46-1.06,0.85-1.4c0.39-0.33,0.84-0.5,1.35-0.5
		c0.29,0,0.55,0.05,0.78,0.14V125.97z"/>
	<path fill="#595959" d="M225.01,123.26c-0.15,0-0.29-0.06-0.41-0.17c-0.12-0.11-0.18-0.26-0.18-0.43c0-0.17,0.06-0.31,0.18-0.41
		c0.12-0.1,0.25-0.16,0.4-0.16c0.16,0,0.3,0.05,0.42,0.15c0.12,0.1,0.18,0.24,0.18,0.41c0,0.16-0.06,0.3-0.18,0.42
		C225.32,123.2,225.18,123.26,225.01,123.26z M224.67,133.1v-7.86h0.71v7.86H224.67z"/>
	<path fill="#595959" d="M236.56,133.1v-1.57h-0.03c-0.25,0.54-0.62,0.97-1.09,1.29c-0.48,0.32-1.01,0.48-1.59,0.48
		c-0.75,0-1.34-0.21-1.77-0.63c-0.43-0.42-0.65-0.95-0.65-1.59c0-1.37,0.91-2.2,2.72-2.49l2.42-0.36c0-1.69-0.63-2.53-1.9-2.53
		c-0.86,0-1.71,0.35-2.52,1.04v-0.85c0.29-0.23,0.69-0.43,1.19-0.59c0.5-0.16,0.97-0.25,1.41-0.25c0.81,0,1.43,0.25,1.88,0.75
		c0.44,0.5,0.66,1.23,0.66,2.19v5.11H236.56z M234.4,129.18c-0.82,0.12-1.4,0.31-1.73,0.57c-0.33,0.26-0.5,0.69-0.5,1.29
		c0,0.47,0.15,0.85,0.46,1.15c0.31,0.3,0.74,0.45,1.29,0.45c0.76,0,1.39-0.28,1.89-0.84c0.5-0.56,0.75-1.28,0.75-2.17v-0.77
		L234.4,129.18z"/>
	<path fill="#595959" d="M248.95,133.1v-4.57c0-1.89-0.68-2.83-2.04-2.83c-0.76,0-1.38,0.28-1.87,0.83
		c-0.49,0.56-0.73,1.24-0.73,2.06v4.51h-0.71v-7.86h0.71v1.43h0.03c0.57-1.08,1.47-1.62,2.69-1.62c0.85,0,1.5,0.28,1.95,0.85
		c0.45,0.57,0.68,1.37,0.68,2.42v4.78H248.95z"/>
	<path fill="#595959" d="M259.1,132.99c-0.37,0.17-0.71,0.26-1.04,0.26c-1.16,0-1.74-0.7-1.74-2.09v-5.28h-1.41v-0.64h1.41v-2.04
		c0.11-0.04,0.23-0.08,0.35-0.12c0.12-0.04,0.24-0.07,0.35-0.12v2.28h2.07v0.64h-2.07v5.19c0,0.54,0.09,0.93,0.26,1.18
		c0.17,0.24,0.46,0.36,0.87,0.36c0.29,0,0.61-0.09,0.94-0.28V132.99z"/>
	<path fill="#595959" d="M267.79,133.29c-1.15,0-2.05-0.38-2.72-1.13c-0.67-0.75-1-1.74-1-2.94c0-1.3,0.35-2.33,1.05-3.06
		c0.7-0.74,1.62-1.11,2.76-1.11c1.12,0,2.01,0.37,2.66,1.1c0.65,0.73,0.97,1.74,0.97,3.04c0,1.22-0.33,2.21-0.99,2.97
		C269.85,132.91,268.94,133.29,267.79,133.29z M267.84,125.69c-0.93,0-1.66,0.31-2.21,0.94c-0.55,0.62-0.82,1.49-0.82,2.6
		c0,1.03,0.27,1.85,0.81,2.48c0.54,0.62,1.27,0.94,2.2,0.94c0.95,0,1.68-0.31,2.19-0.92c0.51-0.61,0.77-1.47,0.77-2.56
		c0-1.12-0.25-1.98-0.76-2.58C269.5,125.99,268.78,125.69,267.84,125.69z"/>
</g>
</svg>
